<svg width="421" height="248" xmlns="http://www.w3.org/2000/svg" version="1.0" preserveAspectRatio="xMidYMid meet">
 <g id="Layer_1">
  <title>Layer 1</title>
  <path stroke-width="6" d="m217.5,168.91222c-1,0 -1.69344,0.4588 -3,1c-2.77164,1.14806 -7.8981,2.39902 -15,4c-17.80156,4.01302 -24.95332,4.49904 -33,5c-7.98454,0.4971 -23.08443,0.47472 -30,-1c-7.12003,-1.51831 -14.37421,-3.94138 -27,-9c-6.227,-2.49489 -12.11824,-5.85652 -17,-10c-10.25708,-8.70587 -15.74269,-12.49348 -21,-21c-1.17557,-1.90211 -2,-5 -2,-12c0,-3 -0.08676,-6.03308 3,-14c1.94554,-5.02144 5.83227,-9.34211 12,-18c4.67781,-6.56644 14,-18 19,-22c5,-4 18.14183,-13.76142 25,-18c9.2012,-5.68665 26.78793,-13.57749 37,-17c10.81076,-3.62316 31.00565,-6.94507 41,-8c9.00536,-0.95053 29,-3 40,-3c10,0 20.1015,-1.85498 37,0c9.16449,1.00601 17.198,4.63297 23,8c12.47391,7.23889 17.44751,12.49725 22,17c10.10495,9.99451 10.79395,15.08744 13,20c1.83203,4.07966 4.49829,15.93797 5,22c0.57736,6.97615 -1.5253,21.08443 -3,28c-1.51831,7.12003 -6.14774,17.94341 -8,23c-2.17538,5.93866 -15.99377,22.34715 -33,34c-19.95221,13.67148 -73,36 -99,43l-21,2" id="svg_3" stroke="#000" fill="none"/>
 </g>
</svg>