<svg>
<g xmlns="http://www.w3.org/2000/svg">
			<path class="st1" d="M232.12,137.05c-0.91,0.96-2.43,1-3.39,0.09l-35.59-33.8l-35.58,33.8c-0.96,0.91-2.48,0.87-3.4-0.09     c-0.91-0.96-0.87-2.48,0.09-3.39l7.91-7.51V106.9h11.93v7.92l17.4-16.52c0.93-0.88,2.38-0.88,3.31,0l37.24,35.36     C233,134.57,233.04,136.09,232.12,137.05z"/>
			<path class="st1" d="M221,136.17h-0.01c0-0.33-0.13-0.66-0.39-0.9l-0.85-0.75v-0.01l-25.76-25.02l-0.01-0.01     c-0.46-0.45-1.2-0.45-1.67,0l-26.03,25.03l-0.56,0.53c-0.26,0.22-0.43,0.55-0.43,0.93v36.74h-6.97l-1.98-11.42     c-4.12-3.05-4.34-4.99-4.34-4.99c-2.66,5.88-7.3,8.54-7.3,8.54c0.28-0.96-0.5-3.28-0.5-3.28c-1.03-4.07-8.55-6-8.55-6l0.29,4.3     c0.28,7.24-8.65,8.77-8.65,8.77l-0.4-6.05l-2.04,3.05c0,0-0.95-0.46-3.96-2.49c-2.99-2.03,0.85-5.48,0.85-5.48     s-8.48,0.28-6.22,6.5c2.26,6.22-1.18,6.68-1.18,6.68c-0.57-3.97-3.34-10.47-3.34-10.47s-6.39-3.84-4.41-8.31     c1.98-4.47-0.91-6.62-0.91-6.62c-0.28,2.15-1.41,3.22-1.41,3.22l-1.13-2.14c-1.64,5.77-7.92,7.46-7.92,7.46l-1.18-0.85     c0,0-2.26,7.98-5.26,7.38c-3-0.61-1.87-6.86-1.87-6.86c-1.3-2.21-2.83-3.63-2.83-3.63l-0.79,2.66l-1.8-4.52     c0,0,0.84,3.9-4.02,5.94c-3.51,1.47-5.27,3.57-5.97,4.63c-0.46,0.69-0.92,1.39-1.42,2.06l-8.76,11.92l-0.1,0.14     c0.08,46.51,37.79,84.17,84.31,84.17c46.56,0,84.31-37.74,84.31-84.31H221V136.17z M201.35,172.71h-16.41v-20.82     c0-0.66,0.54-1.2,1.2-1.2h14.01c0.66,0,1.2,0.54,1.2,1.2V172.71z"/>
		</g>
        </svg>