<svg xmlns="http://www.w3.org/2000/svg" xmlns:xlink="http://www.w3.org/1999/xlink" viewBox="0 0 200 165"><defs><style>.a{fill:#666766;}.b{fill:#888a8c;}.c{fill:url(#a);}.d{fill:url(#w);}.e{fill:#231f20;}</style><linearGradient id="a" x1="11.89" y1="142.07" x2="188.8" y2="142.07" gradientUnits="userSpaceOnUse"><stop offset="0" stop-color="#6dbe45"/><stop offset="0.11" stop-color="#65bb62"/><stop offset="0.32" stop-color="#59b690"/><stop offset="0.52" stop-color="#50b3b4"/><stop offset="0.7" stop-color="#49b0ce"/><stop offset="0.87" stop-color="#44afde"/><stop offset="1" stop-color="#43aee3"/></linearGradient><linearGradient id="w" x1="55.76" y1="69.78" x2="144.24" y2="69.78" xlink:href="#a"/></defs><rect class="a" width="200" height="165"/><rect class="b" y="44.87" width="200" height="49.82"/><path class="c" d="M18.16,140a1.37,1.37,0,0,0-.55-1,2.18,2.18,0,0,0-1.32-.36,2.45,2.45,0,0,0-.95.16,1.28,1.28,0,0,0-.59.43,1,1,0,0,0-.21.63.81.81,0,0,0,.13.51,1.21,1.21,0,0,0,.37.38,3.13,3.13,0,0,0,.55.27,6.08,6.08,0,0,0,.68.19l1,.24a6.48,6.48,0,0,1,1.31.42,4.13,4.13,0,0,1,1,.66,2.75,2.75,0,0,1,.68.91,3.15,3.15,0,0,1-.26,2.95,3.26,3.26,0,0,1-1.45,1.13,5.78,5.78,0,0,1-2.28.4,6,6,0,0,1-2.3-.4,3.33,3.33,0,0,1-1.52-1.2,3.53,3.53,0,0,1-.57-2h2.23a1.62,1.62,0,0,0,.32.92,1.71,1.71,0,0,0,.75.55,3,3,0,0,0,1.06.18,2.79,2.79,0,0,0,1-.17,1.5,1.5,0,0,0,.68-.48,1.07,1.07,0,0,0,.24-.69A.89.89,0,0,0,18,144a1.62,1.62,0,0,0-.63-.43,7.62,7.62,0,0,0-1-.32L15.15,143a5.11,5.11,0,0,1-2.18-1,2.47,2.47,0,0,1-.8-1.93,2.93,2.93,0,0,1,.53-1.73,3.51,3.51,0,0,1,1.48-1.15,5.12,5.12,0,0,1,2.13-.42,5,5,0,0,1,2.12.42,3.33,3.33,0,0,1,1.42,1.15,3.14,3.14,0,0,1,.52,1.72Z" transform="translate(0)"/><path class="c" d="M24.35,147.91a3.38,3.38,0,0,1-1.39-.27,2.22,2.22,0,0,1-1-.82,2.38,2.38,0,0,1-.36-1.35,2.34,2.34,0,0,1,.26-1.14,2,2,0,0,1,.68-.75,3,3,0,0,1,1-.42,7,7,0,0,1,1.16-.21c.47,0,.86-.09,1.15-.14a1.5,1.5,0,0,0,.63-.2.45.45,0,0,0,.2-.39v0a1,1,0,0,0-.32-.79,1.33,1.33,0,0,0-.89-.27,1.61,1.61,0,0,0-1,.27,1.27,1.27,0,0,0-.48.67l-2.1-.17a2.89,2.89,0,0,1,.63-1.29,2.93,2.93,0,0,1,1.21-.84,4.61,4.61,0,0,1,1.73-.3,5,5,0,0,1,1.3.16,3.45,3.45,0,0,1,1.12.5,2.45,2.45,0,0,1,.77.86,2.68,2.68,0,0,1,.28,1.25v5.52H26.81v-1.14h-.07a2.28,2.28,0,0,1-.52.68,2.49,2.49,0,0,1-.8.45A3.17,3.17,0,0,1,24.35,147.91Zm.65-1.56a2,2,0,0,0,.89-.2,1.74,1.74,0,0,0,.6-.54,1.48,1.48,0,0,0,.22-.78V144l-.29.12-.42.1-.46.08-.41.06a2.64,2.64,0,0,0-.7.19,1.18,1.18,0,0,0-.46.34.89.89,0,0,0-.17.54.81.81,0,0,0,.34.7A1.39,1.39,0,0,0,25,146.35Z" transform="translate(0)"/><path class="c" d="M35.07,139.58v1.7H30.15v-1.7Zm-3.8-2h2.26v7.62a1.06,1.06,0,0,0,.1.49.46.46,0,0,0,.27.24,1,1,0,0,0,.4.07,1.73,1.73,0,0,0,.32,0l.25,0,.35,1.69-.48.12a3.66,3.66,0,0,1-.75.09,3.39,3.39,0,0,1-1.43-.22,2,2,0,0,1-1-.77,2.34,2.34,0,0,1-.33-1.34Z" transform="translate(0)"/><path class="c" d="M37.69,138.52a1.21,1.21,0,0,1-.87-.34,1.06,1.06,0,0,1-.36-.81,1.09,1.09,0,0,1,.36-.81,1.24,1.24,0,0,1,.87-.33,1.22,1.22,0,0,1,.86.33,1.09,1.09,0,0,1,.36.81,1.06,1.06,0,0,1-.36.81A1.18,1.18,0,0,1,37.69,138.52Zm-1.14,9.24v-8.18h2.27v8.18Z" transform="translate(0)"/><path class="c" d="M47.44,141.91l-2.08.13a1.07,1.07,0,0,0-.23-.48,1.25,1.25,0,0,0-.46-.35,1.59,1.59,0,0,0-.68-.13,1.66,1.66,0,0,0-.89.22.67.67,0,0,0-.36.59.64.64,0,0,0,.23.49,1.82,1.82,0,0,0,.81.33l1.48.3a3.6,3.6,0,0,1,1.78.79,1.83,1.83,0,0,1,.58,1.42,2.18,2.18,0,0,1-.47,1.41,3,3,0,0,1-1.29,1,4.78,4.78,0,0,1-1.88.34,4.44,4.44,0,0,1-2.59-.68,2.61,2.61,0,0,1-1.12-1.85l2.23-.12A1.18,1.18,0,0,0,43,146a2.12,2.12,0,0,0,2,0,.71.71,0,0,0,.37-.6.67.67,0,0,0-.26-.51,2,2,0,0,0-.79-.3l-1.42-.28a3.33,3.33,0,0,1-1.78-.84,2,2,0,0,1-.58-1.5,2.22,2.22,0,0,1,.42-1.36,2.78,2.78,0,0,1,1.21-.88,4.87,4.87,0,0,1,1.83-.31,4,4,0,0,1,2.45.66A2.53,2.53,0,0,1,47.44,141.91Z" transform="translate(0)"/><path class="c" d="M53.46,139.58v1.7H48.41v-1.7Zm-3.9,8.18V139a2.87,2.87,0,0,1,.35-1.48,2.21,2.21,0,0,1,1-.88,3.18,3.18,0,0,1,1.38-.29,5.61,5.61,0,0,1,1,.08,6.57,6.57,0,0,1,.65.14l-.4,1.71a2,2,0,0,0-.33-.08,1.75,1.75,0,0,0-.4,0,.9.9,0,0,0-.7.23,1,1,0,0,0-.19.65v8.73Z" transform="translate(0)"/><path class="c" d="M56.88,147.91a3.43,3.43,0,0,1-1.4-.27,2.22,2.22,0,0,1-1-.82,2.46,2.46,0,0,1-.35-1.35,2.34,2.34,0,0,1,.25-1.14,2,2,0,0,1,.68-.75,3.19,3.19,0,0,1,1-.42,7.21,7.21,0,0,1,1.16-.21c.48,0,.86-.09,1.15-.14a1.55,1.55,0,0,0,.64-.2.44.44,0,0,0,.19-.39v0a1,1,0,0,0-.31-.79,1.34,1.34,0,0,0-.9-.27,1.63,1.63,0,0,0-1,.27,1.21,1.21,0,0,0-.47.67l-2.1-.17a2.7,2.7,0,0,1,.63-1.29,2.87,2.87,0,0,1,1.21-.84,4.56,4.56,0,0,1,1.72-.3,5.17,5.17,0,0,1,1.31.16,3.31,3.31,0,0,1,1.11.5,2.36,2.36,0,0,1,.77.86,2.57,2.57,0,0,1,.28,1.25v5.52H59.33v-1.14h-.06a2.32,2.32,0,0,1-.53.68,2.43,2.43,0,0,1-.79.45A3.21,3.21,0,0,1,56.88,147.91Zm.65-1.56a1.93,1.93,0,0,0,.88-.2,1.58,1.58,0,0,0,.6-.54,1.39,1.39,0,0,0,.22-.78V144a1.7,1.7,0,0,1-.29.12,3.52,3.52,0,0,1-.41.1l-.46.08-.42.06a2.56,2.56,0,0,0-.69.19,1.22,1.22,0,0,0-.47.34.89.89,0,0,0-.16.54.79.79,0,0,0,.34.7A1.37,1.37,0,0,0,57.53,146.35Z" transform="translate(0)"/><path class="c" d="M66.94,147.92a4.15,4.15,0,0,1-2.16-.54,3.49,3.49,0,0,1-1.38-1.49,4.77,4.77,0,0,1-.48-2.19,4.86,4.86,0,0,1,.48-2.21A3.61,3.61,0,0,1,64.79,140a4.07,4.07,0,0,1,2.14-.54,4.27,4.27,0,0,1,1.88.39A3.14,3.14,0,0,1,70.08,141a3.22,3.22,0,0,1,.52,1.65H68.46a1.69,1.69,0,0,0-.48-1,1.38,1.38,0,0,0-1-.37,1.52,1.52,0,0,0-.92.28,1.9,1.9,0,0,0-.61.83,3.64,3.64,0,0,0-.22,1.32,3.53,3.53,0,0,0,.22,1.33,1.86,1.86,0,0,0,.61.84,1.52,1.52,0,0,0,.92.28,1.47,1.47,0,0,0,.7-.16,1.35,1.35,0,0,0,.52-.46,2,2,0,0,0,.27-.74H70.6a3.48,3.48,0,0,1-.51,1.65,3.17,3.17,0,0,1-1.26,1.11A4.12,4.12,0,0,1,66.94,147.92Z" transform="translate(0)"/><path class="c" d="M76.41,139.58v1.7H71.48v-1.7Zm-3.81-2h2.27v7.62a.94.94,0,0,0,.1.49.47.47,0,0,0,.26.24,1,1,0,0,0,.41.07l.32,0,.24,0,.36,1.69-.48.12a3.85,3.85,0,0,1-.75.09,3.41,3.41,0,0,1-1.44-.22,1.91,1.91,0,0,1-1-.77,2.42,2.42,0,0,1-.34-1.34Z" transform="translate(0)"/><path class="c" d="M79,138.52a1.2,1.2,0,0,1-.86-.34,1.06,1.06,0,0,1-.36-.81,1.09,1.09,0,0,1,.36-.81,1.3,1.3,0,0,1,1.73,0,1.09,1.09,0,0,1,.36.81,1.06,1.06,0,0,1-.36.81A1.21,1.21,0,0,1,79,138.52Zm-1.14,9.24v-8.18h2.27v8.18Z" transform="translate(0)"/><path class="c" d="M85.66,147.92a4.17,4.17,0,0,1-2.14-.53,3.63,3.63,0,0,1-1.4-1.48,5.25,5.25,0,0,1,0-4.43,3.63,3.63,0,0,1,1.4-1.48,4.59,4.59,0,0,1,4.28,0,3.57,3.57,0,0,1,1.4,1.48,5.25,5.25,0,0,1,0,4.43,3.57,3.57,0,0,1-1.4,1.48A4.17,4.17,0,0,1,85.66,147.92Zm0-1.76a1.41,1.41,0,0,0,.94-.32,2,2,0,0,0,.58-.88,3.91,3.91,0,0,0,.19-1.28,3.85,3.85,0,0,0-.19-1.27,1.92,1.92,0,0,0-.58-.88,1.37,1.37,0,0,0-.94-.33,1.39,1.39,0,0,0-1,.33,1.93,1.93,0,0,0-.59.88,3.85,3.85,0,0,0-.19,1.27,3.91,3.91,0,0,0,.19,1.28,2,2,0,0,0,.59.88A1.44,1.44,0,0,0,85.67,146.16Z" transform="translate(0)"/><path class="c" d="M93.44,143v4.73H91.17v-8.18h2.16V141h.1a2.25,2.25,0,0,1,.91-1.13,2.74,2.74,0,0,1,1.55-.42,2.83,2.83,0,0,1,1.48.37,2.5,2.5,0,0,1,1,1.07,3.61,3.61,0,0,1,.35,1.64v5.21H96.44V143a1.61,1.61,0,0,0-.38-1.17,1.39,1.39,0,0,0-1.07-.42,1.62,1.62,0,0,0-.81.19,1.38,1.38,0,0,0-.54.58A1.93,1.93,0,0,0,93.44,143Z" transform="translate(0)"/><path class="c" d="M111.25,140.38a2.42,2.42,0,0,0-.31-.69,2.07,2.07,0,0,0-1.16-.84,3,3,0,0,0-.82-.11,2.58,2.58,0,0,0-1.46.42,2.7,2.7,0,0,0-1,1.2,4.82,4.82,0,0,0-.35,1.93,4.87,4.87,0,0,0,.35,1.94,2.68,2.68,0,0,0,1,1.22,2.64,2.64,0,0,0,1.5.42,3,3,0,0,0,1.34-.28,2,2,0,0,0,.85-.79,2.36,2.36,0,0,0,.29-1.21l.47.07h-2.81v-1.74h4.57v1.37a4.81,4.81,0,0,1-.61,2.47,4.15,4.15,0,0,1-1.68,1.59,5.17,5.17,0,0,1-2.44.56,5.24,5.24,0,0,1-2.69-.68,4.66,4.66,0,0,1-1.81-1.94,6.39,6.39,0,0,1-.65-3,6.67,6.67,0,0,1,.39-2.36,5.07,5.07,0,0,1,1.08-1.77,4.75,4.75,0,0,1,1.63-1.1,5.55,5.55,0,0,1,3.73-.11,4.5,4.5,0,0,1,1.42.76,4.18,4.18,0,0,1,1,1.16,4,4,0,0,1,.5,1.49Z" transform="translate(0)"/><path class="c" d="M120.63,144.28v-4.7h2.27v8.18h-2.18v-1.49h-.09a2.42,2.42,0,0,1-.91,1.16,3,3,0,0,1-3,.06,2.49,2.49,0,0,1-1-1.06,3.61,3.61,0,0,1-.36-1.64v-5.21h2.27v4.8a1.73,1.73,0,0,0,.39,1.15,1.33,1.33,0,0,0,1,.42,1.72,1.72,0,0,0,.77-.19,1.46,1.46,0,0,0,.57-.56A1.77,1.77,0,0,0,120.63,144.28Z" transform="translate(0)"/><path class="c" d="M127,147.91a3.41,3.41,0,0,1-1.39-.27,2.22,2.22,0,0,1-1-.82,2.38,2.38,0,0,1-.35-1.35,2.34,2.34,0,0,1,.25-1.14,2,2,0,0,1,.68-.75,3.09,3.09,0,0,1,1-.42,7.21,7.21,0,0,1,1.16-.21c.48,0,.86-.09,1.15-.14a1.5,1.5,0,0,0,.63-.2.43.43,0,0,0,.2-.39v0a1,1,0,0,0-.32-.79,1.33,1.33,0,0,0-.89-.27,1.61,1.61,0,0,0-1,.27,1.27,1.27,0,0,0-.48.67l-2.1-.17a2.89,2.89,0,0,1,.63-1.29,3,3,0,0,1,1.22-.84,4.52,4.52,0,0,1,1.72-.3,5.17,5.17,0,0,1,1.31.16,3.5,3.5,0,0,1,1.11.5,2.45,2.45,0,0,1,.77.86,2.57,2.57,0,0,1,.28,1.25v5.52H129.5v-1.14h-.07a2.28,2.28,0,0,1-.52.68,2.49,2.49,0,0,1-.8.45A3.17,3.17,0,0,1,127,147.91Zm.65-1.56a2,2,0,0,0,.89-.2,1.74,1.74,0,0,0,.6-.54,1.39,1.39,0,0,0,.22-.78V144a1.7,1.7,0,0,1-.29.12,3.26,3.26,0,0,1-.42.1l-.45.08-.42.06a2.64,2.64,0,0,0-.7.19,1.18,1.18,0,0,0-.46.34.89.89,0,0,0-.16.54.81.81,0,0,0,.33.7A1.39,1.39,0,0,0,127.69,146.35Z" transform="translate(0)"/><path class="c" d="M133.41,147.76v-8.18h2.2V141h.09a2.16,2.16,0,0,1,.75-1.15,2,2,0,0,1,1.21-.39l.37,0a2.81,2.81,0,0,1,.35.06v2a3,3,0,0,0-.44-.08,3.28,3.28,0,0,0-.52,0,1.73,1.73,0,0,0-.89.22,1.56,1.56,0,0,0-.62.6,1.7,1.7,0,0,0-.23.88v4.63Z" transform="translate(0)"/><path class="c" d="M142.89,147.92a4.28,4.28,0,0,1-2.17-.52,3.44,3.44,0,0,1-1.4-1.45,4.8,4.8,0,0,1-.49-2.24,4.72,4.72,0,0,1,.49-2.22A3.68,3.68,0,0,1,140.7,140a4.09,4.09,0,0,1,2.1-.53,4.39,4.39,0,0,1,1.51.26,3.5,3.5,0,0,1,1.23.77,3.64,3.64,0,0,1,.81,1.3,5.07,5.07,0,0,1,.3,1.82v.63h-6.91v-1.41h4.77a1.81,1.81,0,0,0-.21-.87,1.59,1.59,0,0,0-.59-.59,1.86,1.86,0,0,0-1.79,0,1.73,1.73,0,0,0-.62.64,1.83,1.83,0,0,0-.23.88v1.33a2.26,2.26,0,0,0,.23,1.05,1.65,1.65,0,0,0,.64.69,2.07,2.07,0,0,0,1,.23,2.17,2.17,0,0,0,.69-.1,1.46,1.46,0,0,0,.54-.32,1.42,1.42,0,0,0,.34-.52l2.1.14a2.94,2.94,0,0,1-.65,1.31,3.33,3.33,0,0,1-1.27.88A5,5,0,0,1,142.89,147.92Z" transform="translate(0)"/><path class="c" d="M150.4,143v4.73h-2.27v-8.18h2.16V141h.09a2.32,2.32,0,0,1,.92-1.13,2.74,2.74,0,0,1,1.55-.42,2.85,2.85,0,0,1,1.48.37,2.63,2.63,0,0,1,1,1.07,3.61,3.61,0,0,1,.35,1.64v5.21H153.4V143a1.65,1.65,0,0,0-.38-1.17,1.39,1.39,0,0,0-1.07-.42,1.62,1.62,0,0,0-.81.19,1.4,1.4,0,0,0-.55.58A2.06,2.06,0,0,0,150.4,143Z" transform="translate(0)"/><path class="c" d="M161.81,139.58v1.7h-4.93v-1.7Zm-3.81-2h2.27v7.62a1.07,1.07,0,0,0,.09.49.52.52,0,0,0,.27.24,1,1,0,0,0,.4.07,1.66,1.66,0,0,0,.32,0l.25,0,.35,1.69-.48.12a3.66,3.66,0,0,1-.75.09,3.39,3.39,0,0,1-1.43-.22,2,2,0,0,1-1-.77,2.42,2.42,0,0,1-.33-1.34Z" transform="translate(0)"/><path class="c" d="M166.92,147.92a4.28,4.28,0,0,1-2.17-.52,3.41,3.41,0,0,1-1.39-1.45,4.8,4.8,0,0,1-.49-2.24,4.72,4.72,0,0,1,.49-2.22,3.55,3.55,0,0,1,1.38-1.49,4,4,0,0,1,2.09-.53,4.35,4.35,0,0,1,1.51.26,3.42,3.42,0,0,1,1.23.77,3.66,3.66,0,0,1,.82,1.3,5.3,5.3,0,0,1,.29,1.82v.63h-6.91v-1.41h4.77a1.81,1.81,0,0,0-.21-.87,1.52,1.52,0,0,0-.59-.59,1.75,1.75,0,0,0-.87-.22,1.72,1.72,0,0,0-.91.24,1.66,1.66,0,0,0-.62.64,1.72,1.72,0,0,0-.23.88v1.33a2.26,2.26,0,0,0,.22,1.05,1.67,1.67,0,0,0,.65.69,2,2,0,0,0,1,.23,2.17,2.17,0,0,0,.69-.1,1.46,1.46,0,0,0,.54-.32,1.31,1.31,0,0,0,.34-.52l2.1.14a2.75,2.75,0,0,1-.65,1.31,3.25,3.25,0,0,1-1.27.88A4.93,4.93,0,0,1,166.92,147.92Z" transform="translate(0)"/><path class="c" d="M175.89,147.92a4.25,4.25,0,0,1-2.17-.52,3.44,3.44,0,0,1-1.4-1.45,4.8,4.8,0,0,1-.49-2.24,4.72,4.72,0,0,1,.49-2.22A3.68,3.68,0,0,1,173.7,140a4.09,4.09,0,0,1,2.1-.53,4.39,4.39,0,0,1,1.51.26,3.38,3.38,0,0,1,1.22.77,3.52,3.52,0,0,1,.82,1.3,5.08,5.08,0,0,1,.29,1.82v.63h-6.9v-1.41h4.77a1.71,1.71,0,0,0-.22-.87,1.5,1.5,0,0,0-.58-.59,1.86,1.86,0,0,0-1.79,0,1.73,1.73,0,0,0-.62.64,1.83,1.83,0,0,0-.23.88v1.33a2.26,2.26,0,0,0,.23,1.05,1.59,1.59,0,0,0,.64.69,2.07,2.07,0,0,0,1,.23,2.17,2.17,0,0,0,.69-.1,1.46,1.46,0,0,0,.54-.32,1.42,1.42,0,0,0,.34-.52l2.1.14a2.86,2.86,0,0,1-.66,1.31,3.22,3.22,0,0,1-1.26.88A5,5,0,0,1,175.89,147.92Z" transform="translate(0)"/><path class="c" d="M184.14,147.89a3.11,3.11,0,0,1-1.69-.48,3.3,3.3,0,0,1-1.19-1.42,5.5,5.5,0,0,1-.44-2.31,5.36,5.36,0,0,1,.45-2.34,3.29,3.29,0,0,1,1.21-1.4,3.1,3.1,0,0,1,1.65-.47,2.59,2.59,0,0,1,1.15.23,2.35,2.35,0,0,1,.75.58,3,3,0,0,1,.43.67h.07v-4.1h2.27v10.91h-2.24v-1.31h-.1a2.46,2.46,0,0,1-.45.67,2.15,2.15,0,0,1-.75.55A2.54,2.54,0,0,1,184.14,147.89Zm.72-1.8a1.46,1.46,0,0,0,.93-.3,2.06,2.06,0,0,0,.59-.85,3.76,3.76,0,0,0,.2-1.27,3.72,3.72,0,0,0-.2-1.27,1.79,1.79,0,0,0-.59-.83,1.45,1.45,0,0,0-.93-.29,1.47,1.47,0,0,0-.94.3,1.79,1.79,0,0,0-.58.84,3.45,3.45,0,0,0-.2,1.25,3.78,3.78,0,0,0,.2,1.26,1.9,1.9,0,0,0,.58.85A1.48,1.48,0,0,0,184.86,146.09Z" transform="translate(0)"/><circle class="d" cx="100" cy="69.78" r="44.24"/><path class="e" d="M71.56,85.58a31,31,0,0,0,56.88-3.08" transform="translate(0)"/><ellipse class="e" cx="83.36" cy="57.68" rx="6.34" ry="9.96"/><ellipse class="e" cx="113.8" cy="57.68" rx="6.34" ry="9.96"/></svg>